<?xml version="1.0" encoding="utf-8"?>
<!-- Generator: Adobe Illustrator 24.1.0, SVG Export Plug-In . SVG Version: 6.00 Build 0)  -->
<svg version="1.1" id="Layer_1" xmlns="http://www.w3.org/2000/svg" xmlns:xlink="http://www.w3.org/1999/xlink" x="0px" y="0px"
	 viewBox="0 0 34 34" style="enable-background:new 0 0 34 34;" xml:space="preserve">
<style type="text/css">
	.st0{opacity:0.8;}
	.st1{fill:#FFFFFF;}
	.st2{fill:#00FF00;}
	.st3{fill:#14D4D4;}
	.st4{fill:#D8DADA;}
	.st5{fill:none;stroke:#77ADD9;stroke-miterlimit:10;}
	.st6{fill:none;stroke:#77ADD9;stroke-width:0.5;stroke-miterlimit:10;}
	.st7{fill:none;stroke:#14D4D4;stroke-width:0.5;stroke-miterlimit:10;}
</style>
<g>
	<path class="st3" d="M12.47,12.43v8.56h8.56v-8.56H12.47z M16.66,18.75l-2.03-1.02l0.38-0.77l1.39,0.7l2.35-3.14l0.68,0.51
		L16.66,18.75z"/>
	<g>
		<path class="st3" d="M16,29.76c-0.18-0.01-0.36-0.02-0.54-0.03l0.02-0.27c0.18,0.01,0.35,0.02,0.53,0.03L16,29.76z M17.2,29.74
			l-0.02-0.27c0.18-0.01,0.35-0.02,0.52-0.04l0.03,0.26C17.56,29.72,17.38,29.73,17.2,29.74z M14.26,29.58
			c-0.17-0.03-0.35-0.06-0.53-0.1l0.06-0.26c0.17,0.04,0.34,0.07,0.52,0.1L14.26,29.58z M18.93,29.52l-0.05-0.26
			c0.17-0.03,0.34-0.07,0.51-0.11l0.06,0.26C19.28,29.45,19.11,29.48,18.93,29.52z M12.57,29.17c-0.17-0.05-0.34-0.11-0.51-0.17
			l0.09-0.25c0.16,0.06,0.33,0.12,0.5,0.17L12.57,29.17z M20.62,29.06l-0.09-0.25c0.16-0.06,0.33-0.12,0.49-0.18l0.1,0.25
			C20.95,28.94,20.78,29.01,20.62,29.06z M10.94,28.53c-0.16-0.08-0.32-0.16-0.48-0.24l0.12-0.24c0.15,0.08,0.31,0.16,0.47,0.24
			L10.94,28.53z M22.22,28.38l-0.12-0.24c0.16-0.08,0.31-0.16,0.46-0.25l0.13,0.23C22.54,28.22,22.38,28.3,22.22,28.38z M9.42,27.68
			c-0.15-0.1-0.3-0.2-0.44-0.3l0.16-0.22c0.14,0.1,0.29,0.2,0.43,0.3L9.42,27.68z M23.72,27.49l-0.15-0.22
			c0.14-0.1,0.29-0.2,0.43-0.31l0.16,0.21C24.01,27.28,23.87,27.38,23.72,27.49z M8.04,26.62c-0.14-0.12-0.27-0.24-0.4-0.36
			l0.18-0.19c0.13,0.12,0.26,0.24,0.39,0.35L8.04,26.62z M25.08,26.39l-0.18-0.2c0.13-0.12,0.26-0.24,0.38-0.36l0.2,0.18l-0.01,0.01
			C25.34,26.15,25.21,26.27,25.08,26.39z M6.8,25.39c-0.12-0.13-0.23-0.27-0.35-0.41l0.21-0.17c0.11,0.14,0.22,0.27,0.34,0.4
			L6.8,25.39z M26.29,25.12l-0.2-0.17c0.11-0.13,0.22-0.27,0.33-0.41l0.21,0.16C26.51,24.84,26.4,24.98,26.29,25.12z M5.75,24
			c-0.1-0.15-0.19-0.3-0.29-0.45l0.23-0.14c0.09,0.15,0.18,0.3,0.28,0.45L5.75,24z M27.31,23.7l-0.23-0.14
			c0.09-0.15,0.18-0.3,0.27-0.45l0.23,0.13C27.49,23.4,27.4,23.55,27.31,23.7z M4.89,22.48c-0.08-0.16-0.15-0.32-0.22-0.49l0.24-0.1
			c0.07,0.16,0.14,0.32,0.22,0.48L4.89,22.48z M28.12,22.16l-0.24-0.11c0.07-0.16,0.14-0.32,0.2-0.49l0.25,0.1
			C28.26,21.83,28.19,22,28.12,22.16z M4.25,20.86c-0.05-0.17-0.1-0.34-0.15-0.52l0.26-0.07c0.05,0.17,0.1,0.34,0.15,0.5L4.25,20.86
			z M28.71,20.52l-0.26-0.07c0.05-0.17,0.09-0.34,0.13-0.51L28.85,20C28.81,20.18,28.76,20.35,28.71,20.52z M3.84,19.16
			c-0.03-0.18-0.06-0.36-0.08-0.53l0.26-0.03c0.02,0.17,0.05,0.35,0.08,0.52L3.84,19.16z M29.08,18.82l-0.26-0.04
			c0.02-0.17,0.05-0.35,0.06-0.52l0.26,0.03C29.13,18.46,29.1,18.64,29.08,18.82z M3.66,17.43c-0.01-0.15-0.01-0.29-0.01-0.44l0-0.1
			l0.27,0l0,0.1c0,0.14,0,0.29,0.01,0.43L3.66,17.43z M29.21,17.08l-0.27,0l0-0.09c0-0.15,0-0.29-0.01-0.44l0.27-0.01
			c0.01,0.15,0.01,0.3,0.01,0.45L29.21,17.08z M3.98,15.71l-0.26-0.03c0.02-0.18,0.04-0.36,0.07-0.53l0.26,0.04
			C4.02,15.36,4,15.54,3.98,15.71z M28.84,15.37c-0.02-0.17-0.05-0.35-0.08-0.52l0.26-0.05c0.03,0.18,0.06,0.36,0.08,0.53
			L28.84,15.37z M4.27,14.03l-0.26-0.06c0.04-0.17,0.09-0.35,0.14-0.52l0.26,0.07C4.36,13.69,4.31,13.86,4.27,14.03z M28.5,13.7
			c-0.05-0.17-0.1-0.34-0.15-0.5l0.25-0.08c0.05,0.17,0.1,0.34,0.15,0.52L28.5,13.7z M4.79,12.4l-0.25-0.1
			c0.07-0.17,0.14-0.33,0.21-0.5l0.24,0.11C4.92,12.07,4.85,12.24,4.79,12.4z M27.95,12.08c-0.07-0.16-0.14-0.32-0.22-0.48
			l0.24-0.11c0.08,0.16,0.15,0.33,0.22,0.49L27.95,12.08z M5.52,10.86l-0.23-0.13c0.09-0.16,0.18-0.31,0.27-0.46l0.23,0.14
			C5.7,10.55,5.61,10.71,5.52,10.86z M27.17,10.56c-0.09-0.15-0.18-0.3-0.28-0.45l0.22-0.15c0.1,0.15,0.19,0.3,0.29,0.45
			L27.17,10.56z M6.46,9.43L6.25,9.27c0.11-0.14,0.22-0.28,0.33-0.42l0.2,0.17C6.67,9.15,6.56,9.29,6.46,9.43z M26.19,9.16
			c-0.11-0.14-0.22-0.27-0.34-0.4l0.2-0.18c0.12,0.13,0.23,0.27,0.35,0.41L26.19,9.16z M7.58,8.14L7.39,7.96l0,0
			C7.52,7.83,7.65,7.7,7.78,7.59l0.18,0.2C7.83,7.9,7.71,8.02,7.58,8.14z M25.04,7.9c-0.13-0.12-0.26-0.24-0.39-0.35l0.17-0.2
			c0.13,0.12,0.27,0.24,0.4,0.36L25.04,7.9z M8.87,7.02L8.7,6.81C8.85,6.7,8.99,6.59,9.14,6.49l0.15,0.22
			C9.15,6.81,9,6.91,8.87,7.02z M23.72,6.82c-0.14-0.1-0.29-0.2-0.43-0.3l0.15-0.22c0.15,0.1,0.3,0.2,0.44,0.3L23.72,6.82z
			 M10.29,6.08l-0.13-0.23c0.16-0.09,0.31-0.17,0.47-0.25l0.12,0.24C10.6,5.91,10.44,6,10.29,6.08z M22.27,5.92
			c-0.15-0.08-0.31-0.16-0.47-0.24l0.11-0.24c0.16,0.08,0.32,0.16,0.48,0.24L22.27,5.92z M11.83,5.35l-0.1-0.25
			c0.17-0.07,0.34-0.13,0.5-0.19l0.09,0.25C12.16,5.22,12,5.28,11.83,5.35z M20.71,5.23c-0.16-0.06-0.33-0.12-0.5-0.17l0.08-0.25
			c0.17,0.05,0.34,0.11,0.51,0.17L20.71,5.23z M13.46,4.83L13.4,4.57c0.17-0.04,0.35-0.08,0.52-0.12l0.05,0.26
			C13.81,4.75,13.63,4.79,13.46,4.83z M19.07,4.76c-0.17-0.04-0.34-0.07-0.52-0.1l0.04-0.26c0.18,0.03,0.35,0.06,0.53,0.1
			L19.07,4.76z M15.15,4.54l-0.03-0.26c0.18-0.02,0.36-0.03,0.54-0.04l0.02,0.27C15.5,4.51,15.32,4.52,15.15,4.54z M17.38,4.51
			c-0.17-0.01-0.35-0.02-0.53-0.03l0.01-0.27c0.18,0.01,0.36,0.02,0.54,0.03L17.38,4.51z"/>
		<path class="st3" d="M16.43,28.05c-2.95,0-5.73-1.15-7.82-3.24C4.3,20.5,4.3,13.48,8.61,9.17c2.09-2.09,4.87-3.24,7.82-3.24
			c2.95,0,5.73,1.15,7.82,3.24c2.09,2.09,3.24,4.87,3.24,7.82s-1.15,5.73-3.24,7.82l0,0l0,0C22.16,26.9,19.39,28.05,16.43,28.05z
			 M16.43,6.19c-2.88,0-5.59,1.12-7.63,3.16c-4.21,4.21-4.21,11.06,0,15.26c2.04,2.04,4.75,3.16,7.63,3.16
			c2.88,0,5.59-1.12,7.63-3.16l0,0c2.04-2.04,3.16-4.75,3.16-7.63c0-2.88-1.12-5.59-3.16-7.63C22.02,7.32,19.31,6.19,16.43,6.19z"/>
		<path class="st3" d="M16.38,31.12l-0.07,0c-1.71-0.01-3.39-0.33-4.98-0.95l-0.06-0.02l0.02-0.06l2.27-5.88l0.06,0.02
			c0.87,0.34,1.79,0.51,2.74,0.52l0.07,0L16.38,31.12z M11.44,30.06c1.54,0.59,3.15,0.89,4.8,0.92l0.05-6.11
			c-0.91-0.02-1.8-0.19-2.65-0.51L11.44,30.06z M29.3,22.82l-5.82-2.6l0.03-0.06c0.38-0.85,0.6-1.76,0.66-2.7l0-0.07l6.36,0.38
			l0,0.07c-0.1,1.71-0.51,3.37-1.2,4.93L29.3,22.82z M23.66,20.15l5.58,2.49c0.66-1.51,1.06-3.1,1.16-4.75l-6.1-0.36
			C24.24,18.44,24.02,19.32,23.66,20.15z M8.68,16.85l-6.37-0.16l0-0.07c0.04-1.71,0.39-3.38,1.03-4.96l0.02-0.06l5.9,2.4
			l-0.03,0.06c-0.35,0.87-0.54,1.78-0.57,2.73L8.68,16.85z M2.44,16.56l6.11,0.16c0.03-0.91,0.22-1.8,0.55-2.64l-5.66-2.3
			C2.83,13.3,2.49,14.91,2.44,16.56z M23.68,14.22l-0.02-0.06c-0.34-0.87-0.83-1.66-1.46-2.36l-0.04-0.05l4.73-4.27l0.04,0.05
			c1.15,1.27,2.05,2.72,2.67,4.32l0.02,0.06L23.68,14.22z M22.33,11.75c0.61,0.68,1.08,1.45,1.42,2.29l5.69-2.22
			c-0.61-1.53-1.47-2.93-2.58-4.16L22.33,11.75z M11.09,11.36L6.74,6.71l0.05-0.05c1.25-1.17,2.69-2.1,4.27-2.74l0.06-0.03
			l0.03,0.06l2.4,5.83l-0.06,0.03c-0.86,0.35-1.65,0.86-2.34,1.5L11.09,11.36z M6.93,6.72l4.17,4.46c0.67-0.62,1.43-1.11,2.27-1.46
			l-2.32-5.65C9.52,4.7,8.14,5.59,6.93,6.72z M19.54,9.88l-0.06-0.03c-0.86-0.37-1.77-0.57-2.71-0.61l-0.07,0l0-0.07l0.27-6.3
			l0.07,0c1.71,0.07,3.38,0.45,4.95,1.12l0.06,0.03L19.54,9.88z M16.84,9.11c0.91,0.05,1.8,0.25,2.63,0.6l2.4-5.62
			c-1.52-0.64-3.12-1-4.77-1.08L16.84,9.11z"/>
		<path class="st3" d="M18.87,32.72l-1.11-7.04l0.06-0.01c1.84-0.29,3.52-1.14,4.84-2.47l0.07-0.07l5.04,5.04l-0.07,0.07
			c-2.4,2.4-5.43,3.94-8.77,4.47L18.87,32.72z M17.89,25.79l1.07,6.8c3.29-0.53,6.27-2.06,8.63-4.41l-4.87-4.87
			C21.4,24.63,19.73,25.48,17.89,25.79z M5.22,28.3l-0.04-0.04c-2.4-2.4-3.94-5.43-4.47-8.76L0.7,19.44l3.94-0.63l0.01,0.06
			l-0.01-0.06l3.1-0.49l0.01,0.06c0.29,1.84,1.15,3.51,2.47,4.83l0.04,0.04L5.22,28.3z M0.83,19.53c0.53,3.27,2.05,6.24,4.39,8.59
			l4.86-4.88c-1.3-1.32-2.15-2.98-2.45-4.8L0.83,19.53z M25.13,15.64l-0.01-0.06c-0.29-1.83-1.15-3.5-2.47-4.82l-0.06-0.06l5-5
			l0.01,0.01l0.04-0.04l0.05,0.05c2.39,2.39,3.93,5.41,4.47,8.73l0.01,0.06l-0.06,0.01L25.13,15.64z M22.76,10.7
			c1.31,1.32,2.16,2.98,2.47,4.8l6.8-1.09c-0.54-3.26-2.05-6.23-4.39-8.58l-2.44,2.43L22.76,10.7z M10.15,10.82L5.12,5.79l0.06-0.06
			c2.39-2.39,5.41-3.93,8.74-4.46l0.06-0.01l1.12,7.03L15.03,8.3c-1.84,0.29-3.5,1.15-4.82,2.47L10.15,10.82z M5.28,5.79l4.87,4.87
			c1.32-1.31,2.98-2.16,4.8-2.46l-1.09-6.8C10.6,1.93,7.64,3.44,5.28,5.79z"/>
	</g>
</g>
</svg>
