<?xml version="1.0" encoding="utf-8"?>
<!-- Generator: Adobe Illustrator 24.1.0, SVG Export Plug-In . SVG Version: 6.00 Build 0)  -->
<svg version="1.1" id="Layer_1" xmlns="http://www.w3.org/2000/svg" xmlns:xlink="http://www.w3.org/1999/xlink" x="0px" y="0px"
	 viewBox="0 0 33 33" style="enable-background:new 0 0 33 33;" xml:space="preserve">
<style type="text/css">
	.st0{opacity:0.8;}
	.st1{fill:#FFFFFF;}
	.st2{fill:#00FF00;}
	.st3{fill:#14D4D4;}
	.st4{fill:#D8DADA;}
	.st5{fill:none;stroke:#77ADD9;stroke-miterlimit:10;}
	.st6{fill:none;stroke:#77ADD9;stroke-width:0.5;stroke-miterlimit:10;}
	.st7{fill:none;stroke:#14D4D4;stroke-width:0.5;stroke-miterlimit:10;}
</style>
<g>
	<g>
		<path class="st2" d="M15.75,18.71c-0.01-0.18-0.01-0.32-0.01-0.51c0-0.97,0.35-1.7,1.22-2.29l0.65-0.44
			c0.5-0.34,0.78-0.87,0.78-1.44c0-0.87-0.57-1.67-1.75-1.67c-1.28,0-1.83,0.95-1.83,1.88c0,0.25,0.04,0.56,0.1,0.72l-1.42-0.18
			c-0.06-0.21-0.09-0.44-0.09-0.7c0-1.35,0.98-3.01,3.24-3.01c2.05,0,3.21,1.45,3.21,2.95c0,1.17-0.65,1.98-1.5,2.55l-0.68,0.46
			c-0.46,0.31-0.65,0.84-0.65,1.41c0,0.07,0,0.13,0.01,0.28H15.75z M16.38,19.84c0.53,0,0.97,0.44,0.97,0.97s-0.44,0.95-0.97,0.95
			c-0.53,0-0.95-0.43-0.95-0.95S15.85,19.84,16.38,19.84z"/>
	</g>
	<g>
		<path class="st2" d="M16.01,29.08c-0.18-0.01-0.36-0.02-0.54-0.03l0.02-0.27c0.18,0.01,0.35,0.02,0.53,0.03L16.01,29.08z
			 M17.22,29.07l-0.02-0.27c0.18-0.01,0.35-0.02,0.52-0.04l0.03,0.26C17.58,29.04,17.4,29.06,17.22,29.07z M14.28,28.91
			c-0.17-0.03-0.35-0.06-0.53-0.1l0.06-0.26c0.17,0.04,0.34,0.07,0.52,0.1L14.28,28.91z M18.95,28.84l-0.05-0.26
			c0.17-0.03,0.34-0.07,0.51-0.11l0.06,0.26C19.3,28.77,19.12,28.81,18.95,28.84z M12.58,28.49c-0.17-0.05-0.34-0.11-0.51-0.17
			l0.09-0.25c0.16,0.06,0.33,0.12,0.5,0.17L12.58,28.49z M20.63,28.39l-0.09-0.25c0.16-0.06,0.33-0.12,0.49-0.18l0.1,0.25
			C20.97,28.27,20.8,28.33,20.63,28.39z M10.96,27.86c-0.16-0.08-0.32-0.16-0.48-0.24l0.12-0.24c0.15,0.08,0.31,0.16,0.47,0.24
			L10.96,27.86z M22.24,27.71l-0.12-0.24c0.16-0.08,0.31-0.16,0.46-0.25l0.13,0.23C22.56,27.54,22.4,27.63,22.24,27.71z M9.44,27
			c-0.15-0.1-0.3-0.2-0.44-0.3l0.16-0.22c0.14,0.1,0.29,0.2,0.43,0.3L9.44,27z M23.74,26.81l-0.15-0.22c0.14-0.1,0.29-0.2,0.43-0.31
			l0.16,0.21C24.03,26.6,23.88,26.71,23.74,26.81z M8.05,25.95c-0.14-0.12-0.27-0.24-0.4-0.36l0.18-0.19
			c0.13,0.12,0.26,0.24,0.39,0.35L8.05,25.95z M25.1,25.72l-0.18-0.2c0.13-0.12,0.26-0.24,0.38-0.36l0.2,0.18l-0.01,0.01
			C25.36,25.47,25.23,25.6,25.1,25.72z M6.82,24.71c-0.12-0.13-0.23-0.27-0.35-0.41l0.21-0.17c0.11,0.14,0.22,0.27,0.34,0.4
			L6.82,24.71z M26.31,24.45l-0.2-0.17c0.11-0.13,0.22-0.27,0.33-0.41l0.21,0.16C26.53,24.17,26.42,24.31,26.31,24.45z M5.76,23.32
			c-0.1-0.15-0.19-0.3-0.29-0.45l0.23-0.14c0.09,0.15,0.18,0.3,0.28,0.45L5.76,23.32z M27.32,23.03l-0.23-0.14
			c0.09-0.15,0.18-0.3,0.27-0.45l0.23,0.13C27.51,22.72,27.42,22.88,27.32,23.03z M4.91,21.81c-0.08-0.16-0.15-0.32-0.22-0.49
			l0.24-0.1c0.07,0.16,0.14,0.32,0.22,0.48L4.91,21.81z M28.14,21.49l-0.24-0.11c0.07-0.16,0.14-0.32,0.2-0.49l0.25,0.1
			C28.28,21.16,28.21,21.33,28.14,21.49z M4.27,20.18c-0.05-0.17-0.1-0.34-0.15-0.52l0.26-0.07c0.05,0.17,0.1,0.34,0.15,0.5
			L4.27,20.18z M28.73,19.85l-0.26-0.07c0.05-0.17,0.09-0.34,0.13-0.51l0.26,0.06C28.83,19.5,28.78,19.68,28.73,19.85z M3.86,18.49
			c-0.03-0.18-0.06-0.36-0.08-0.53l0.26-0.03c0.02,0.17,0.05,0.35,0.08,0.52L3.86,18.49z M29.1,18.14l-0.26-0.04
			c0.02-0.17,0.05-0.35,0.06-0.52l0.26,0.03C29.14,17.79,29.12,17.97,29.1,18.14z M3.68,16.75c-0.01-0.15-0.01-0.29-0.01-0.44l0-0.1
			l0.27,0l0,0.1c0,0.14,0,0.29,0.01,0.43L3.68,16.75z M29.23,16.4l-0.27,0l0-0.09c0-0.15,0-0.29-0.01-0.44l0.27-0.01
			c0.01,0.15,0.01,0.3,0.01,0.45L29.23,16.4z M4,15.04l-0.26-0.03c0.02-0.18,0.04-0.36,0.07-0.53l0.26,0.04
			C4.04,14.69,4.02,14.86,4,15.04z M28.86,14.7c-0.02-0.17-0.05-0.35-0.08-0.52l0.26-0.05c0.03,0.18,0.06,0.36,0.08,0.53L28.86,14.7
			z M4.29,13.35l-0.26-0.06c0.04-0.17,0.09-0.35,0.14-0.52l0.26,0.07C4.38,13.01,4.33,13.18,4.29,13.35z M28.52,13.02
			c-0.05-0.17-0.1-0.34-0.15-0.5l0.25-0.08c0.05,0.17,0.1,0.34,0.15,0.52L28.52,13.02z M4.81,11.73l-0.25-0.1
			c0.07-0.17,0.14-0.33,0.21-0.5l0.24,0.11C4.94,11.4,4.87,11.56,4.81,11.73z M27.96,11.41c-0.07-0.16-0.14-0.32-0.22-0.48
			l0.24-0.11c0.08,0.16,0.15,0.33,0.22,0.49L27.96,11.41z M5.54,10.18l-0.23-0.13C5.39,9.9,5.49,9.74,5.58,9.59l0.23,0.14
			C5.71,9.88,5.62,10.03,5.54,10.18z M27.19,9.89C27.1,9.74,27,9.59,26.91,9.44l0.22-0.15c0.1,0.15,0.19,0.3,0.29,0.45L27.19,9.89z
			 M6.48,8.76L6.26,8.6C6.37,8.45,6.48,8.31,6.6,8.18l0.2,0.17C6.69,8.48,6.58,8.62,6.48,8.76z M26.21,8.49
			c-0.11-0.14-0.22-0.27-0.34-0.4l0.2-0.18c0.12,0.13,0.23,0.27,0.35,0.41L26.21,8.49z M7.6,7.47L7.41,7.28l0,0
			C7.54,7.15,7.67,7.03,7.8,6.91l0.18,0.2C7.85,7.22,7.72,7.34,7.6,7.47z M25.05,7.23c-0.13-0.12-0.26-0.24-0.39-0.35l0.17-0.2
			c0.13,0.12,0.27,0.24,0.4,0.36L25.05,7.23z M8.88,6.35L8.72,6.13c0.14-0.11,0.29-0.21,0.43-0.32l0.15,0.22
			C9.17,6.14,9.02,6.24,8.88,6.35z M23.74,6.14c-0.14-0.1-0.29-0.2-0.43-0.3l0.15-0.22c0.15,0.1,0.3,0.2,0.44,0.3L23.74,6.14z
			 M10.31,5.41l-0.13-0.23c0.16-0.09,0.31-0.17,0.47-0.25l0.12,0.24C10.62,5.24,10.46,5.32,10.31,5.41z M22.29,5.24
			c-0.15-0.08-0.31-0.16-0.47-0.24l0.11-0.24c0.16,0.08,0.32,0.16,0.48,0.24L22.29,5.24z M11.85,4.67l-0.1-0.25
			c0.17-0.07,0.34-0.13,0.5-0.19l0.09,0.25C12.18,4.55,12.02,4.61,11.85,4.67z M20.73,4.55c-0.16-0.06-0.33-0.12-0.5-0.17l0.08-0.25
			c0.17,0.05,0.34,0.11,0.51,0.17L20.73,4.55z M13.48,4.16L13.42,3.9c0.17-0.04,0.35-0.08,0.52-0.12l0.05,0.26
			C13.82,4.08,13.65,4.12,13.48,4.16z M19.09,4.08c-0.17-0.04-0.34-0.07-0.52-0.1l0.04-0.26c0.18,0.03,0.35,0.06,0.53,0.1
			L19.09,4.08z M15.16,3.87L15.14,3.6c0.18-0.02,0.36-0.03,0.54-0.04l0.02,0.27C15.51,3.84,15.34,3.85,15.16,3.87z M17.4,3.84
			c-0.17-0.01-0.35-0.02-0.53-0.03l0.01-0.27c0.18,0.01,0.36,0.02,0.54,0.03L17.4,3.84z"/>
		<path class="st2" d="M16.45,27.37c-2.95,0-5.73-1.15-7.82-3.24c-4.31-4.31-4.31-11.33,0-15.64c2.09-2.09,4.87-3.24,7.82-3.24
			c2.95,0,5.73,1.15,7.82,3.24c2.09,2.09,3.24,4.87,3.24,7.82s-1.15,5.73-3.24,7.82l0,0l0,0C22.18,26.22,19.4,27.37,16.45,27.37z
			 M16.45,5.52c-2.88,0-5.59,1.12-7.63,3.16c-4.21,4.21-4.21,11.06,0,15.26c2.04,2.04,4.75,3.16,7.63,3.16
			c2.88,0,5.59-1.12,7.63-3.16l0,0c2.04-2.04,3.16-4.75,3.16-7.63c0-2.88-1.12-5.59-3.16-7.63C22.04,6.64,19.33,5.52,16.45,5.52z"/>
		<path class="st2" d="M16.39,30.44l-0.07,0c-1.71-0.01-3.39-0.33-4.98-0.95l-0.06-0.02l0.02-0.06l2.27-5.88l0.06,0.02
			c0.87,0.34,1.79,0.51,2.74,0.52l0.07,0L16.39,30.44z M11.46,29.39c1.54,0.59,3.15,0.89,4.8,0.92l0.05-6.11
			c-0.91-0.02-1.8-0.19-2.65-0.51L11.46,29.39z M29.32,22.14l-5.82-2.6l0.03-0.06c0.38-0.85,0.6-1.76,0.66-2.7l0-0.07l6.36,0.38
			l0,0.07c-0.1,1.71-0.51,3.37-1.2,4.93L29.32,22.14z M23.68,19.47l5.58,2.49c0.66-1.51,1.06-3.1,1.16-4.75l-6.1-0.36
			C24.26,17.76,24.04,18.64,23.68,19.47z M8.7,16.18l-6.37-0.16l0-0.07c0.04-1.71,0.39-3.38,1.03-4.96l0.02-0.06l5.9,2.4l-0.03,0.06
			c-0.35,0.87-0.54,1.78-0.57,2.73L8.7,16.18z M2.46,15.89l6.11,0.16c0.03-0.91,0.22-1.8,0.55-2.64l-5.66-2.3
			C2.85,12.63,2.51,14.24,2.46,15.89z M23.7,13.54l-0.02-0.06c-0.34-0.87-0.83-1.66-1.46-2.36l-0.04-0.05l4.73-4.27l0.04,0.05
			c1.15,1.27,2.05,2.72,2.67,4.32l0.02,0.06L23.7,13.54z M22.35,11.08c0.61,0.68,1.08,1.45,1.42,2.29l5.69-2.22
			c-0.61-1.53-1.47-2.93-2.58-4.16L22.35,11.08z M11.11,10.69L6.76,6.04L6.8,5.99c1.25-1.17,2.69-2.1,4.27-2.74l0.06-0.03l0.03,0.06
			l2.4,5.83L13.5,9.14c-0.86,0.35-1.65,0.86-2.34,1.5L11.11,10.69z M6.94,6.04l4.17,4.46c0.67-0.62,1.43-1.11,2.27-1.46l-2.32-5.65
			C9.54,4.03,8.16,4.92,6.94,6.04z M19.56,9.21L19.5,9.18c-0.86-0.37-1.77-0.57-2.71-0.61l-0.07,0l0-0.07l0.27-6.3l0.07,0
			c1.71,0.07,3.38,0.45,4.95,1.12l0.06,0.03L19.56,9.21z M16.85,8.44c0.91,0.05,1.8,0.25,2.63,0.6l2.4-5.62
			c-1.52-0.64-3.12-1-4.77-1.08L16.85,8.44z"/>
		<path class="st2" d="M18.88,32.05l-1.11-7.04L17.83,25c1.84-0.29,3.52-1.14,4.84-2.47l0.07-0.07l5.04,5.04l-0.07,0.07
			c-2.4,2.4-5.43,3.94-8.77,4.47L18.88,32.05z M17.91,25.11l1.07,6.8c3.29-0.53,6.27-2.06,8.63-4.41l-4.87-4.87
			C21.42,23.95,19.75,24.81,17.91,25.11z M5.24,27.62L5.2,27.58c-2.4-2.4-3.94-5.43-4.47-8.76l-0.01-0.06l3.94-0.63l0.01,0.06
			l-0.01-0.06l3.1-0.49l0.01,0.06c0.29,1.84,1.15,3.51,2.47,4.83l0.04,0.04L5.24,27.62z M0.85,18.86c0.53,3.27,2.05,6.24,4.39,8.59
			l4.86-4.88c-1.3-1.32-2.15-2.98-2.45-4.8L0.85,18.86z M25.15,14.97l-0.01-0.06c-0.29-1.83-1.15-3.5-2.47-4.82l-0.06-0.06l5-5
			l0.01,0.01L27.65,5l0.05,0.05c2.39,2.39,3.93,5.41,4.47,8.73l0.01,0.06l-0.06,0.01L25.15,14.97z M22.77,10.03
			c1.31,1.32,2.16,2.98,2.47,4.8l6.8-1.09c-0.54-3.26-2.05-6.23-4.39-8.58l-2.44,2.43L22.77,10.03z M10.17,10.15L5.13,5.11
			l0.06-0.06c2.39-2.39,5.41-3.93,8.74-4.46l0.06-0.01l1.12,7.03l-0.06,0.01c-1.84,0.29-3.5,1.15-4.82,2.47L10.17,10.15z M5.3,5.11
			l4.87,4.87c1.32-1.31,2.98-2.16,4.8-2.46l-1.09-6.8C10.62,1.25,7.65,2.77,5.3,5.11z"/>
	</g>
</g>
</svg>
