<?xml version="1.0" encoding="utf-8"?>
<!-- Generator: Adobe Illustrator 24.1.0, SVG Export Plug-In . SVG Version: 6.00 Build 0)  -->
<svg version="1.1" id="Layer_1" xmlns="http://www.w3.org/2000/svg" xmlns:xlink="http://www.w3.org/1999/xlink" x="0px" y="0px"
	 viewBox="0 0 34 34" style="enable-background:new 0 0 34 34;" xml:space="preserve">
<style type="text/css">
	.st0{opacity:0.8;}
	.st1{fill:#FFFFFF;}
	.st2{fill:#00FF00;}
	.st3{fill:#14D4D4;}
	.st4{fill:#D8DADA;}
	.st5{fill:none;stroke:#77ADD9;stroke-miterlimit:10;}
	.st6{fill:none;stroke:#77ADD9;stroke-width:0.5;stroke-miterlimit:10;}
	.st7{fill:none;stroke:#14D4D4;stroke-width:0.5;stroke-miterlimit:10;}
</style>
<g class="st0">
	<g>
		<g>
			<path class="st1" d="M16.97,29.56c-0.18-0.01-0.36-0.02-0.54-0.03l0.02-0.27c0.18,0.01,0.35,0.02,0.53,0.03L16.97,29.56z
				 M18.17,29.55l-0.02-0.27c0.18-0.01,0.35-0.02,0.52-0.04l0.03,0.26C18.53,29.52,18.35,29.54,18.17,29.55z M15.23,29.39
				c-0.17-0.03-0.35-0.06-0.53-0.1l0.06-0.26c0.17,0.04,0.34,0.07,0.52,0.1L15.23,29.39z M19.9,29.32l-0.05-0.26
				c0.17-0.03,0.34-0.07,0.51-0.11l0.06,0.26C20.25,29.25,20.08,29.29,19.9,29.32z M13.54,28.97c-0.17-0.05-0.34-0.11-0.51-0.17
				l0.09-0.25c0.16,0.06,0.33,0.12,0.5,0.17L13.54,28.97z M21.59,28.87l-0.09-0.25c0.16-0.06,0.33-0.12,0.49-0.18l0.1,0.25
				C21.92,28.75,21.75,28.81,21.59,28.87z M11.91,28.34c-0.16-0.08-0.32-0.16-0.48-0.24l0.12-0.24c0.15,0.08,0.31,0.16,0.47,0.24
				L11.91,28.34z M23.19,28.19l-0.12-0.24c0.16-0.08,0.31-0.16,0.46-0.25l0.13,0.23C23.51,28.02,23.35,28.11,23.19,28.19z
				 M10.39,27.48c-0.15-0.1-0.3-0.2-0.44-0.3l0.16-0.22c0.14,0.1,0.29,0.2,0.43,0.3L10.39,27.48z M24.69,27.29l-0.15-0.22
				c0.14-0.1,0.29-0.2,0.43-0.31l0.16,0.21C24.98,27.08,24.84,27.19,24.69,27.29z M9.01,26.43c-0.14-0.12-0.27-0.24-0.4-0.36
				l0.18-0.19c0.13,0.12,0.26,0.24,0.39,0.35L9.01,26.43z M26.05,26.2L25.87,26c0.13-0.12,0.26-0.24,0.38-0.36l0.2,0.18l-0.01,0.01
				C26.31,25.95,26.18,26.08,26.05,26.2z M7.77,25.19c-0.12-0.13-0.23-0.27-0.35-0.41l0.21-0.17c0.11,0.14,0.22,0.27,0.34,0.4
				L7.77,25.19z M27.26,24.93l-0.2-0.17c0.11-0.13,0.22-0.27,0.33-0.41l0.21,0.16C27.48,24.65,27.37,24.79,27.26,24.93z M6.72,23.81
				c-0.1-0.15-0.19-0.3-0.29-0.45l0.23-0.14c0.09,0.15,0.18,0.3,0.28,0.45L6.72,23.81z M28.27,23.51l-0.23-0.14
				c0.09-0.15,0.18-0.3,0.27-0.45l0.23,0.13C28.46,23.2,28.37,23.36,28.27,23.51z M5.86,22.29c-0.08-0.16-0.15-0.32-0.22-0.49
				l0.24-0.1c0.07,0.16,0.14,0.32,0.22,0.48L5.86,22.29z M29.09,21.97l-0.24-0.11c0.07-0.16,0.14-0.32,0.2-0.49l0.25,0.1
				C29.23,21.64,29.16,21.81,29.09,21.97z M5.22,20.66c-0.05-0.17-0.1-0.34-0.15-0.52l0.26-0.07c0.05,0.17,0.1,0.34,0.15,0.5
				L5.22,20.66z M29.68,20.33l-0.26-0.07c0.05-0.17,0.09-0.34,0.13-0.51l0.26,0.06C29.78,19.98,29.73,20.16,29.68,20.33z
				 M4.81,18.97c-0.03-0.18-0.06-0.36-0.08-0.53l0.26-0.03c0.02,0.17,0.05,0.35,0.08,0.52L4.81,18.97z M30.05,18.62l-0.26-0.04
				c0.02-0.17,0.05-0.35,0.06-0.52l0.26,0.03C30.1,18.27,30.07,18.45,30.05,18.62z M4.63,17.23c-0.01-0.15-0.01-0.29-0.01-0.44
				l0-0.1l0.27,0l0,0.1c0,0.14,0,0.29,0.01,0.43L4.63,17.23z M30.18,16.88l-0.27,0l0-0.09c0-0.15,0-0.29-0.01-0.44l0.27-0.01
				c0.01,0.15,0.01,0.3,0.01,0.45L30.18,16.88z M4.95,15.52l-0.26-0.03c0.02-0.18,0.04-0.36,0.07-0.53L5.02,15
				C4.99,15.17,4.97,15.34,4.95,15.52z M29.81,15.18c-0.02-0.17-0.05-0.35-0.08-0.52l0.26-0.05c0.03,0.18,0.06,0.36,0.08,0.53
				L29.81,15.18z M5.24,13.83l-0.26-0.06c0.04-0.17,0.09-0.35,0.14-0.52l0.26,0.07C5.33,13.49,5.28,13.66,5.24,13.83z M29.47,13.5
				c-0.05-0.17-0.1-0.34-0.15-0.5l0.25-0.08c0.05,0.17,0.1,0.34,0.15,0.52L29.47,13.5z M5.76,12.21l-0.25-0.1
				c0.07-0.17,0.14-0.33,0.21-0.5l0.24,0.11C5.89,11.88,5.82,12.04,5.76,12.21z M28.92,11.89c-0.07-0.16-0.14-0.32-0.22-0.48
				l0.24-0.11c0.08,0.16,0.15,0.33,0.22,0.49L28.92,11.89z M6.49,10.66l-0.23-0.13c0.09-0.16,0.18-0.31,0.27-0.46l0.23,0.14
				C6.67,10.36,6.58,10.51,6.49,10.66z M28.14,10.37c-0.09-0.15-0.18-0.3-0.28-0.45l0.22-0.15c0.1,0.15,0.19,0.3,0.29,0.45
				L28.14,10.37z M7.43,9.24L7.22,9.08c0.11-0.14,0.22-0.28,0.33-0.42l0.2,0.17C7.64,8.96,7.53,9.1,7.43,9.24z M27.16,8.97
				c-0.11-0.14-0.22-0.27-0.34-0.4l0.2-0.18c0.12,0.13,0.23,0.27,0.35,0.41L27.16,8.97z M8.55,7.95L8.36,7.76l0,0
				c0.12-0.12,0.25-0.25,0.38-0.37l0.18,0.2C8.8,7.7,8.68,7.82,8.55,7.95z M26.01,7.71c-0.13-0.12-0.26-0.24-0.39-0.35l0.17-0.2
				c0.13,0.12,0.27,0.24,0.4,0.36L26.01,7.71z M9.84,6.83L9.67,6.61C9.82,6.51,9.96,6.4,10.11,6.3l0.15,0.22
				C10.12,6.62,9.97,6.72,9.84,6.83z M24.69,6.62c-0.14-0.1-0.29-0.2-0.43-0.3L24.4,6.1c0.15,0.1,0.3,0.2,0.44,0.3L24.69,6.62z
				 M11.26,5.89l-0.13-0.23c0.16-0.09,0.31-0.17,0.47-0.25l0.12,0.24C11.57,5.72,11.41,5.8,11.26,5.89z M23.24,5.72
				c-0.15-0.08-0.31-0.16-0.47-0.24l0.11-0.24c0.16,0.08,0.32,0.16,0.48,0.24L23.24,5.72z M12.8,5.15l-0.1-0.25
				c0.17-0.07,0.34-0.13,0.5-0.19l0.09,0.25C13.13,5.03,12.97,5.09,12.8,5.15z M21.68,5.03c-0.16-0.06-0.33-0.12-0.5-0.17l0.08-0.25
				c0.17,0.05,0.34,0.11,0.51,0.17L21.68,5.03z M14.43,4.64l-0.06-0.26c0.17-0.04,0.35-0.08,0.52-0.12l0.05,0.26
				C14.78,4.56,14.6,4.6,14.43,4.64z M20.04,4.56c-0.17-0.04-0.34-0.07-0.52-0.1l0.04-0.26c0.18,0.03,0.35,0.06,0.53,0.1L20.04,4.56
				z M16.11,4.35l-0.03-0.26c0.18-0.02,0.36-0.03,0.54-0.04l0.02,0.27C16.46,4.32,16.29,4.33,16.11,4.35z M18.35,4.32
				C18.17,4.3,18,4.29,17.82,4.29l0.01-0.27c0.18,0.01,0.36,0.02,0.54,0.03L18.35,4.32z"/>
			<path class="st1" d="M17.4,27.85c-2.95,0-5.73-1.15-7.82-3.24c-4.31-4.31-4.31-11.33,0-15.64c2.09-2.09,4.87-3.24,7.82-3.24
				c2.95,0,5.73,1.15,7.82,3.24c2.09,2.09,3.24,4.87,3.24,7.82s-1.15,5.73-3.24,7.82l0,0l0,0C23.13,26.7,20.36,27.85,17.4,27.85z
				 M17.4,6c-2.88,0-5.59,1.12-7.63,3.16c-4.21,4.21-4.21,11.06,0,15.26c2.04,2.04,4.75,3.16,7.63,3.16c2.88,0,5.59-1.12,7.63-3.16
				l0,0c2.04-2.04,3.16-4.75,3.16-7.63c0-2.88-1.12-5.59-3.16-7.63C22.99,7.12,20.28,6,17.4,6z"/>
			<path class="st1" d="M17.35,30.92l-0.07,0c-1.71-0.01-3.39-0.33-4.98-0.95l-0.06-0.02l0.02-0.06L14.54,24l0.06,0.02
				c0.87,0.34,1.79,0.51,2.74,0.52l0.07,0L17.35,30.92z M12.41,29.87c1.54,0.59,3.15,0.89,4.8,0.92l0.05-6.11
				c-0.91-0.02-1.8-0.19-2.65-0.51L12.41,29.87z M30.27,22.62l-5.82-2.6l0.03-0.06c0.38-0.85,0.6-1.76,0.66-2.7l0-0.07l6.36,0.38
				l0,0.07C31.4,19.35,31,21,30.3,22.56L30.27,22.62z M24.63,19.95l5.58,2.49c0.66-1.51,1.06-3.1,1.16-4.75l-6.1-0.36
				C25.21,18.24,24.99,19.12,24.63,19.95z M9.65,16.66L3.28,16.5l0-0.07c0.04-1.71,0.39-3.38,1.03-4.96l0.02-0.06l5.9,2.4
				l-0.03,0.06c-0.35,0.87-0.54,1.78-0.57,2.73L9.65,16.66z M3.41,16.37l6.11,0.16c0.03-0.91,0.22-1.8,0.55-2.64l-5.66-2.3
				C3.8,13.11,3.46,14.72,3.41,16.37z M24.65,14.02l-0.02-0.06c-0.34-0.87-0.83-1.66-1.46-2.36l-0.04-0.05l4.73-4.27l0.04,0.05
				c1.15,1.27,2.05,2.72,2.67,4.32l0.02,0.06L24.65,14.02z M23.3,11.56c0.61,0.68,1.08,1.45,1.42,2.29l5.69-2.22
				c-0.61-1.53-1.47-2.93-2.58-4.16L23.3,11.56z M12.06,11.17L7.71,6.52l0.05-0.05c1.25-1.17,2.69-2.1,4.27-2.74l0.06-0.03
				l0.03,0.06l2.4,5.83l-0.06,0.03c-0.86,0.35-1.65,0.86-2.34,1.5L12.06,11.17z M7.9,6.52l4.17,4.46c0.67-0.62,1.43-1.11,2.27-1.46
				l-2.32-5.65C10.49,4.51,9.11,5.4,7.9,6.52z M20.51,9.69l-0.06-0.03c-0.86-0.37-1.77-0.57-2.71-0.61l-0.07,0l0-0.07l0.27-6.3
				l0.07,0c1.71,0.07,3.38,0.45,4.95,1.12l0.06,0.03L20.51,9.69z M17.81,8.92c0.91,0.05,1.8,0.25,2.63,0.6l2.4-5.62
				c-1.52-0.64-3.12-1-4.77-1.08L17.81,8.92z"/>
			<path class="st1" d="M19.84,32.53l-1.11-7.04l0.06-0.01c1.84-0.29,3.52-1.14,4.84-2.47l0.07-0.07l5.04,5.04l-0.07,0.07
				c-2.4,2.4-5.43,3.94-8.77,4.47L19.84,32.53z M18.86,25.59l1.07,6.8c3.29-0.53,6.27-2.06,8.63-4.41l-4.87-4.87
				C22.37,24.43,20.7,25.29,18.86,25.59z M6.19,28.1l-0.04-0.04c-2.4-2.4-3.94-5.43-4.47-8.76l-0.01-0.06l3.94-0.63l0.01,0.06
				L5.6,18.62l3.1-0.49l0.01,0.06c0.29,1.84,1.15,3.51,2.47,4.83l0.04,0.04L6.19,28.1z M1.8,19.34c0.53,3.27,2.05,6.24,4.39,8.59
				l4.86-4.88c-1.3-1.32-2.15-2.98-2.45-4.8L1.8,19.34z M26.1,15.45l-0.01-0.06c-0.29-1.83-1.15-3.5-2.47-4.82l-0.06-0.06l5-5
				l0.01,0.01l0.04-0.04l0.05,0.05c2.39,2.39,3.93,5.41,4.47,8.73l0.01,0.06l-0.06,0.01L26.1,15.45z M23.73,10.51
				c1.31,1.32,2.16,2.98,2.47,4.8l6.8-1.09c-0.54-3.26-2.05-6.23-4.39-8.58l-2.44,2.43L23.73,10.51z M11.12,10.63L6.09,5.59
				l0.06-0.06c2.39-2.39,5.41-3.93,8.74-4.46l0.06-0.01l1.12,7.03L16,8.1c-1.84,0.29-3.5,1.15-4.82,2.47L11.12,10.63z M6.25,5.59
				l4.87,4.87C12.44,9.15,14.1,8.3,15.93,8l-1.09-6.8C11.57,1.73,8.6,3.25,6.25,5.59z"/>
		</g>
	</g>
	<g>
		<g>
			<path class="st1" d="M18.76,12.77L18.76,12.77l-4.92,4.92v2.81h2.75l4.92-4.92l-0.02-0.21C21.38,13.93,20.2,12.81,18.76,12.77z"
				/>
			<line class="st1" x1="13.81" y1="17.69" x2="16.59" y2="20.47"/>
			<polygon class="st1" points="13.84,19.82 14.52,20.5 13.81,20.5 			"/>
		</g>
	</g>
	<line class="st1" x1="13.76" y1="19.72" x2="14.6" y2="20.56"/>
</g>
</svg>
