<?xml version="1.0" encoding="utf-8"?>
<!-- Generator: Adobe Illustrator 24.1.0, SVG Export Plug-In . SVG Version: 6.00 Build 0)  -->
<svg version="1.1" id="Layer_1" xmlns="http://www.w3.org/2000/svg" xmlns:xlink="http://www.w3.org/1999/xlink" x="0px" y="0px"
	 viewBox="0 0 34 34" style="enable-background:new 0 0 34 34;" xml:space="preserve">
<style type="text/css">
	.st0{opacity:0.8;}
	.st1{fill:#FFFFFF;}
	.st2{fill:#00FF00;}
	.st3{fill:#14D4D4;}
	.st4{fill:#D8DADA;}
	.st5{fill:none;stroke:#77ADD9;stroke-miterlimit:10;}
	.st6{fill:none;stroke:#77ADD9;stroke-width:0.5;stroke-miterlimit:10;}
	.st7{fill:none;stroke:#14D4D4;stroke-width:0.5;stroke-miterlimit:10;}
</style>
<g>
	<g>
		<path class="st3" d="M16.9,29.45c-0.18-0.01-0.36-0.02-0.54-0.03l0.02-0.27c0.18,0.01,0.35,0.02,0.53,0.03L16.9,29.45z
			 M18.11,29.43l-0.02-0.27c0.18-0.01,0.35-0.02,0.52-0.04l0.03,0.26C18.47,29.41,18.29,29.42,18.11,29.43z M15.17,29.27
			c-0.17-0.03-0.35-0.06-0.53-0.1l0.06-0.26c0.17,0.04,0.34,0.07,0.52,0.1L15.17,29.27z M19.84,29.21l-0.05-0.26
			c0.17-0.03,0.34-0.07,0.51-0.11l0.06,0.26C20.19,29.14,20.01,29.17,19.84,29.21z M13.47,28.86c-0.17-0.05-0.34-0.11-0.51-0.17
			l0.09-0.25c0.16,0.06,0.33,0.12,0.5,0.17L13.47,28.86z M21.52,28.75l-0.09-0.25c0.16-0.06,0.33-0.12,0.49-0.18l0.1,0.25
			C21.86,28.63,21.69,28.7,21.52,28.75z M11.85,28.22c-0.16-0.08-0.32-0.16-0.48-0.24l0.12-0.24c0.15,0.08,0.31,0.16,0.47,0.24
			L11.85,28.22z M23.13,28.07l-0.12-0.24c0.16-0.08,0.31-0.16,0.46-0.25l0.13,0.23C23.45,27.91,23.29,27.99,23.13,28.07z
			 M10.33,27.37c-0.15-0.1-0.3-0.2-0.44-0.3l0.16-0.22c0.14,0.1,0.29,0.2,0.43,0.3L10.33,27.37z M24.63,27.18l-0.15-0.22
			c0.14-0.1,0.29-0.2,0.43-0.31l0.16,0.21C24.92,26.97,24.77,27.07,24.63,27.18z M8.94,26.31c-0.14-0.12-0.27-0.24-0.4-0.36
			l0.18-0.19c0.13,0.12,0.26,0.24,0.39,0.35L8.94,26.31z M25.99,26.08l-0.18-0.2c0.13-0.12,0.26-0.24,0.38-0.36l0.2,0.18l-0.01,0.01
			C26.25,25.84,26.12,25.96,25.99,26.08z M7.71,25.08c-0.12-0.13-0.23-0.27-0.35-0.41l0.21-0.17c0.11,0.14,0.22,0.27,0.34,0.4
			L7.71,25.08z M27.2,24.81l-0.2-0.17c0.11-0.13,0.22-0.27,0.33-0.41l0.21,0.16C27.42,24.53,27.31,24.67,27.2,24.81z M6.65,23.69
			c-0.1-0.15-0.19-0.3-0.29-0.45L6.6,23.1c0.09,0.15,0.18,0.3,0.28,0.45L6.65,23.69z M28.21,23.39l-0.23-0.14
			c0.09-0.15,0.18-0.3,0.27-0.45l0.23,0.13C28.4,23.09,28.31,23.24,28.21,23.39z M5.8,22.17c-0.08-0.16-0.15-0.32-0.22-0.49
			l0.24-0.1c0.07,0.16,0.14,0.32,0.22,0.48L5.8,22.17z M29.03,21.85l-0.24-0.11c0.07-0.16,0.14-0.32,0.2-0.49l0.25,0.1
			C29.17,21.52,29.1,21.69,29.03,21.85z M5.16,20.55c-0.05-0.17-0.1-0.34-0.15-0.52l0.26-0.07c0.05,0.17,0.1,0.34,0.15,0.5
			L5.16,20.55z M29.62,20.21l-0.26-0.07c0.05-0.17,0.09-0.34,0.13-0.51l0.26,0.06C29.71,19.87,29.67,20.04,29.62,20.21z M4.75,18.85
			c-0.03-0.18-0.06-0.36-0.08-0.53l0.26-0.03c0.02,0.17,0.05,0.35,0.08,0.52L4.75,18.85z M29.99,18.51l-0.26-0.04
			c0.02-0.17,0.05-0.35,0.06-0.52l0.26,0.03C30.03,18.15,30.01,18.33,29.99,18.51z M4.57,17.12c-0.01-0.15-0.01-0.29-0.01-0.44
			l0-0.1l0.27,0l0,0.1c0,0.14,0,0.29,0.01,0.43L4.57,17.12z M30.12,16.77l-0.27,0l0-0.09c0-0.15,0-0.29-0.01-0.44l0.27-0.01
			c0.01,0.15,0.01,0.3,0.01,0.45L30.12,16.77z M4.89,15.4l-0.26-0.03c0.02-0.18,0.04-0.36,0.07-0.53l0.26,0.04
			C4.93,15.05,4.91,15.23,4.89,15.4z M29.75,15.06c-0.02-0.17-0.05-0.35-0.08-0.52l0.26-0.05c0.03,0.18,0.06,0.36,0.08,0.53
			L29.75,15.06z M5.18,13.72l-0.26-0.06c0.04-0.17,0.09-0.35,0.14-0.52l0.26,0.07C5.27,13.38,5.22,13.55,5.18,13.72z M29.41,13.39
			c-0.05-0.17-0.1-0.34-0.15-0.5l0.25-0.08c0.05,0.17,0.1,0.34,0.15,0.52L29.41,13.39z M5.69,12.09l-0.25-0.1
			c0.07-0.17,0.14-0.33,0.21-0.5l0.24,0.11C5.83,11.76,5.76,11.93,5.69,12.09z M28.85,11.77c-0.07-0.16-0.14-0.32-0.22-0.48
			l0.24-0.11c0.08,0.16,0.15,0.33,0.22,0.49L28.85,11.77z M6.43,10.55L6.2,10.42c0.09-0.16,0.18-0.31,0.27-0.46l0.23,0.14
			C6.6,10.24,6.51,10.4,6.43,10.55z M28.08,10.25c-0.09-0.15-0.18-0.3-0.28-0.45l0.22-0.15c0.1,0.15,0.19,0.3,0.29,0.45L28.08,10.25
			z M7.36,9.12L7.15,8.96c0.11-0.14,0.22-0.28,0.33-0.42l0.2,0.17C7.58,8.84,7.47,8.98,7.36,9.12z M27.1,8.85
			c-0.11-0.14-0.22-0.27-0.34-0.4l0.2-0.18c0.12,0.13,0.23,0.27,0.35,0.41L27.1,8.85z M8.49,7.83L8.3,7.65l0,0
			c0.12-0.12,0.25-0.25,0.38-0.37l0.18,0.2C8.74,7.59,8.61,7.71,8.49,7.83z M25.94,7.59c-0.13-0.12-0.26-0.24-0.39-0.35l0.17-0.2
			c0.13,0.12,0.27,0.24,0.4,0.36L25.94,7.59z M9.77,6.71L9.61,6.5c0.14-0.11,0.29-0.21,0.43-0.32L10.2,6.4
			C10.05,6.5,9.91,6.6,9.77,6.71z M24.63,6.51c-0.14-0.1-0.29-0.2-0.43-0.3l0.15-0.22c0.15,0.1,0.3,0.2,0.44,0.3L24.63,6.51z
			 M11.2,5.77l-0.13-0.23c0.16-0.09,0.31-0.17,0.47-0.25l0.12,0.24C11.51,5.6,11.35,5.69,11.2,5.77z M23.18,5.61
			c-0.15-0.08-0.31-0.16-0.47-0.24l0.11-0.24c0.16,0.08,0.32,0.16,0.48,0.24L23.18,5.61z M12.74,5.04l-0.1-0.25
			c0.17-0.07,0.34-0.13,0.5-0.19l0.09,0.25C13.07,4.91,12.9,4.97,12.74,5.04z M21.62,4.92c-0.16-0.06-0.33-0.12-0.5-0.17l0.08-0.25
			c0.17,0.05,0.34,0.11,0.51,0.17L21.62,4.92z M14.37,4.52l-0.06-0.26c0.17-0.04,0.35-0.08,0.52-0.12l0.05,0.26
			C14.71,4.44,14.54,4.48,14.37,4.52z M19.97,4.45c-0.17-0.04-0.34-0.07-0.52-0.1l0.04-0.26c0.18,0.03,0.35,0.06,0.53,0.1
			L19.97,4.45z M16.05,4.23l-0.03-0.26c0.18-0.02,0.36-0.03,0.54-0.04l0.02,0.27C16.4,4.2,16.23,4.21,16.05,4.23z M18.28,4.2
			c-0.17-0.01-0.35-0.02-0.53-0.03l0.01-0.27c0.18,0.01,0.36,0.02,0.54,0.03L18.28,4.2z"/>
		<path class="st3" d="M17.34,27.74c-2.95,0-5.73-1.15-7.82-3.24c-4.31-4.31-4.31-11.33,0-15.64c2.09-2.09,4.87-3.24,7.82-3.24
			c2.95,0,5.73,1.15,7.82,3.24c2.09,2.09,3.24,4.87,3.24,7.82s-1.15,5.73-3.24,7.82l0,0l0,0C23.07,26.59,20.29,27.74,17.34,27.74z
			 M17.34,5.88c-2.88,0-5.59,1.12-7.63,3.16c-4.21,4.21-4.21,11.06,0,15.26c2.04,2.04,4.75,3.16,7.63,3.16
			c2.88,0,5.59-1.12,7.63-3.16l0,0c2.04-2.04,3.16-4.75,3.16-7.63c0-2.88-1.12-5.59-3.16-7.63C22.93,7.01,20.22,5.88,17.34,5.88z"/>
		<path class="st3" d="M17.28,30.81l-0.07,0c-1.71-0.01-3.39-0.33-4.98-0.95l-0.06-0.02l0.02-0.06l2.27-5.88l0.06,0.02
			c0.87,0.34,1.79,0.51,2.74,0.52l0.07,0L17.28,30.81z M12.35,29.75c1.54,0.59,3.15,0.89,4.8,0.92l0.05-6.11
			c-0.91-0.02-1.8-0.19-2.65-0.51L12.35,29.75z M30.21,22.51l-5.82-2.6l0.03-0.06c0.38-0.85,0.6-1.76,0.66-2.7l0-0.07l6.36,0.38
			l0,0.07c-0.1,1.71-0.51,3.37-1.2,4.93L30.21,22.51z M24.57,19.84l5.58,2.49c0.66-1.51,1.06-3.1,1.16-4.75l-6.1-0.36
			C25.15,18.13,24.93,19.01,24.57,19.84z M9.59,16.54l-6.37-0.16l0-0.07c0.04-1.71,0.39-3.38,1.03-4.96l0.02-0.06l5.9,2.4
			l-0.03,0.06c-0.35,0.87-0.54,1.78-0.57,2.73L9.59,16.54z M3.35,16.25l6.11,0.16c0.03-0.91,0.22-1.8,0.55-2.64l-5.66-2.3
			C3.74,12.99,3.4,14.6,3.35,16.25z M24.58,13.91l-0.02-0.06c-0.34-0.87-0.83-1.66-1.46-2.36l-0.04-0.05l4.73-4.27l0.04,0.05
			c1.15,1.27,2.05,2.72,2.67,4.32l0.02,0.06L24.58,13.91z M23.24,11.44c0.61,0.68,1.08,1.45,1.42,2.29l5.69-2.22
			c-0.61-1.53-1.47-2.93-2.58-4.16L23.24,11.44z M12,11.05L7.64,6.4l0.05-0.05c1.25-1.17,2.69-2.1,4.27-2.74l0.06-0.03l0.03,0.06
			l2.4,5.83L14.39,9.5c-0.86,0.35-1.65,0.86-2.34,1.5L12,11.05z M7.83,6.41L12,10.87c0.67-0.62,1.43-1.11,2.27-1.46l-2.32-5.65
			C10.43,4.39,9.05,5.28,7.83,6.41z M20.45,9.57l-0.06-0.03c-0.86-0.37-1.77-0.57-2.71-0.61l-0.07,0l0-0.07l0.27-6.3l0.07,0
			c1.71,0.07,3.38,0.45,4.95,1.12l0.06,0.03L20.45,9.57z M17.74,8.8c0.91,0.05,1.8,0.25,2.63,0.6l2.4-5.62
			c-1.52-0.64-3.12-1-4.77-1.08L17.74,8.8z"/>
		<path class="st3" d="M19.77,32.41l-1.11-7.04l0.06-0.01c1.84-0.29,3.52-1.14,4.84-2.47l0.07-0.07l5.04,5.04l-0.07,0.07
			c-2.4,2.4-5.43,3.94-8.77,4.47L19.77,32.41z M18.8,25.48l1.07,6.8c3.29-0.53,6.27-2.06,8.63-4.41L23.63,23
			C22.31,24.32,20.64,25.17,18.8,25.48z M6.13,27.99l-0.04-0.04c-2.4-2.4-3.94-5.43-4.47-8.76L1.6,19.13l3.94-0.63l0.01,0.06
			L5.54,18.5l3.1-0.49l0.01,0.06c0.29,1.84,1.15,3.51,2.47,4.83l0.04,0.04L6.13,27.99z M1.74,19.22c0.53,3.27,2.05,6.24,4.39,8.59
			l4.86-4.88c-1.3-1.32-2.15-2.98-2.45-4.8L1.74,19.22z M26.04,15.33l-0.01-0.06c-0.29-1.83-1.15-3.5-2.47-4.82l-0.06-0.06l5-5
			L28.5,5.4l0.04-0.04l0.05,0.05c2.39,2.39,3.93,5.41,4.47,8.73l0.01,0.06l-0.06,0.01L26.04,15.33z M23.66,10.39
			c1.31,1.32,2.16,2.98,2.47,4.8l6.8-1.09c-0.54-3.26-2.05-6.23-4.39-8.58L26.1,7.96L23.66,10.39z M11.06,10.51L6.02,5.48l0.06-0.06
			c2.39-2.39,5.41-3.93,8.74-4.46l0.06-0.01L16,7.98l-0.06,0.01c-1.84,0.29-3.5,1.15-4.82,2.47L11.06,10.51z M6.19,5.48l4.87,4.87
			c1.32-1.31,2.98-2.16,4.8-2.46l-1.09-6.8C11.51,1.62,8.54,3.13,6.19,5.48z"/>
	</g>
	<path class="st3" d="M21.1,17.88c-0.18-0.18-0.39-0.28-0.62-0.32l1.62-1.62l-1.67-1.67c-0.04,0.23-0.14,0.45-0.32,0.62
		c-0.44,0.44-1.16,0.44-1.6,0c-0.44-0.44-0.44-1.16,0-1.6c0.18-0.18,0.39-0.28,0.62-0.32l-1.57-1.57l-4.53,4.53l1.57,1.57
		c-0.23,0.04-0.45,0.14-0.62,0.32c-0.44,0.44-0.44,1.16,0,1.6c0.44,0.44,1.16,0.44,1.6,0c0.18-0.18,0.28-0.39,0.32-0.62l1.67,1.67
		l1.62-1.62c0.04,0.23,0.14,0.45,0.32,0.62c0.44,0.44,1.16,0.44,1.6,0C21.54,19.04,21.54,18.32,21.1,17.88z"/>
</g>
</svg>
