<?xml version="1.0" encoding="utf-8"?>
<!-- Generator: Adobe Illustrator 24.1.0, SVG Export Plug-In . SVG Version: 6.00 Build 0)  -->
<svg version="1.1" id="Layer_1" xmlns="http://www.w3.org/2000/svg" xmlns:xlink="http://www.w3.org/1999/xlink" x="0px" y="0px"
	 viewBox="0 0 34 34" style="enable-background:new 0 0 34 34;" xml:space="preserve">
<style type="text/css">
	.st0{opacity:0.8;}
	.st1{fill:#FFFFFF;}
	.st2{fill:#00FF00;}
	.st3{fill:#14D4D4;}
	.st4{fill:#D8DADA;}
	.st5{fill:none;stroke:#77ADD9;stroke-miterlimit:10;}
	.st6{fill:none;stroke:#77ADD9;stroke-width:0.5;stroke-miterlimit:10;}
	.st7{fill:none;stroke:#14D4D4;stroke-width:0.5;stroke-miterlimit:10;}
</style>
<g>
	<g>
		<path class="st2" d="M16.79,30.09c-0.18-0.01-0.37-0.02-0.55-0.03l0.02-0.27c0.18,0.01,0.36,0.02,0.54,0.03L16.79,30.09z
			 M18.04,30.08l-0.02-0.27c0.18-0.01,0.36-0.03,0.54-0.04l0.03,0.27C18.41,30.05,18.23,30.07,18.04,30.08z M15,29.91
			c-0.18-0.03-0.36-0.07-0.54-0.11l0.06-0.27c0.18,0.04,0.36,0.07,0.53,0.1L15,29.91z M19.83,29.85l-0.05-0.27
			c0.18-0.04,0.35-0.07,0.53-0.12l0.06,0.27C20.19,29.77,20.01,29.81,19.83,29.85z M13.25,29.49c-0.18-0.06-0.35-0.12-0.53-0.18
			l0.09-0.26c0.17,0.06,0.34,0.12,0.51,0.17L13.25,29.49z M21.57,29.38l-0.09-0.26c0.17-0.06,0.34-0.12,0.51-0.19l0.1,0.26
			C21.92,29.25,21.74,29.32,21.57,29.38z M11.57,28.83c-0.17-0.08-0.33-0.16-0.5-0.25l0.13-0.24c0.16,0.08,0.32,0.17,0.49,0.24
			L11.57,28.83z M23.23,28.67l-0.12-0.25c0.16-0.08,0.32-0.17,0.48-0.26l0.13,0.24C23.56,28.5,23.39,28.59,23.23,28.67z M10,27.94
			c-0.15-0.1-0.31-0.21-0.46-0.31L9.7,27.4c0.15,0.11,0.3,0.21,0.45,0.31L10,27.94z M24.78,27.75l-0.16-0.23
			c0.15-0.1,0.3-0.21,0.44-0.32l0.17,0.22C25.08,27.53,24.93,27.64,24.78,27.75z M8.56,26.85c-0.14-0.12-0.28-0.25-0.41-0.37
			l0.19-0.2c0.13,0.12,0.26,0.25,0.4,0.37L8.56,26.85z M26.18,26.62L26,26.41c0.13-0.12,0.27-0.25,0.39-0.38l0.2,0.18l-0.01,0.01
			C26.46,26.36,26.32,26.49,26.18,26.62z M7.29,25.58c-0.12-0.14-0.24-0.28-0.36-0.43l0.21-0.17c0.11,0.14,0.23,0.28,0.35,0.42
			L7.29,25.58z M27.43,25.3l-0.21-0.18c0.12-0.14,0.23-0.28,0.34-0.43l0.22,0.17C27.67,25.01,27.55,25.16,27.43,25.3z M6.2,24.14
			c-0.1-0.16-0.2-0.31-0.3-0.47l0.24-0.14c0.09,0.15,0.19,0.31,0.29,0.46L6.2,24.14z M28.48,23.84l-0.23-0.14
			c0.1-0.15,0.19-0.31,0.28-0.47l0.24,0.13C28.68,23.52,28.58,23.68,28.48,23.84z M5.31,22.57c-0.08-0.17-0.16-0.34-0.23-0.51
			l0.25-0.11c0.07,0.17,0.15,0.33,0.22,0.5L5.31,22.57z M29.33,22.24l-0.25-0.11c0.07-0.16,0.14-0.33,0.21-0.5l0.26,0.1
			C29.47,21.9,29.4,22.07,29.33,22.24z M4.65,20.89c-0.06-0.17-0.11-0.35-0.16-0.53l0.27-0.07c0.05,0.18,0.1,0.35,0.15,0.52
			L4.65,20.89z M29.94,20.55l-0.26-0.08c0.05-0.17,0.1-0.35,0.14-0.53l0.27,0.06C30.04,20.19,29.99,20.37,29.94,20.55z M4.22,19.14
			c-0.03-0.18-0.06-0.37-0.08-0.55l0.27-0.04c0.02,0.18,0.05,0.36,0.08,0.54L4.22,19.14z M30.32,18.78l-0.27-0.04
			c0.03-0.18,0.05-0.36,0.07-0.54l0.27,0.03C30.37,18.42,30.34,18.6,30.32,18.78z M4.04,17.35c-0.01-0.15-0.01-0.3-0.01-0.45l0-0.1
			l0.27,0l0,0.1c0,0.15,0,0.3,0.01,0.45L4.04,17.35z M30.45,16.98l-0.27,0l0-0.09c0-0.15,0-0.3-0.01-0.45l0.27-0.01
			c0.01,0.15,0.01,0.31,0.01,0.46L30.45,16.98z M4.38,15.57L4.1,15.54c0.02-0.18,0.04-0.37,0.07-0.55l0.27,0.04
			C4.42,15.21,4.39,15.39,4.38,15.57z M30.07,15.22c-0.02-0.18-0.05-0.36-0.08-0.54l0.27-0.05c0.03,0.18,0.06,0.37,0.08,0.55
			L30.07,15.22z M4.67,13.83l-0.27-0.06c0.04-0.18,0.09-0.36,0.14-0.54l0.26,0.08C4.76,13.48,4.72,13.66,4.67,13.83z M29.72,13.49
			c-0.05-0.18-0.1-0.35-0.15-0.52l0.26-0.08c0.06,0.17,0.11,0.35,0.16,0.53L29.72,13.49z M5.21,12.15l-0.26-0.1
			c0.07-0.17,0.14-0.34,0.21-0.51l0.25,0.11C5.34,11.81,5.27,11.98,5.21,12.15z M29.15,11.82c-0.07-0.17-0.15-0.33-0.22-0.5
			l0.25-0.12c0.08,0.17,0.16,0.34,0.23,0.51L29.15,11.82z M5.96,10.56l-0.24-0.13c0.09-0.16,0.19-0.32,0.28-0.48l0.23,0.14
			C6.14,10.24,6.05,10.4,5.96,10.56z M28.35,10.25c-0.09-0.16-0.19-0.31-0.29-0.46l0.23-0.15c0.1,0.15,0.2,0.31,0.3,0.47
			L28.35,10.25z M6.93,9.08L6.71,8.91c0.11-0.15,0.23-0.29,0.34-0.43l0.21,0.18C7.15,8.79,7.04,8.94,6.93,9.08z M27.34,8.8
			c-0.11-0.14-0.23-0.28-0.35-0.42l0.21-0.18c0.12,0.14,0.24,0.28,0.36,0.43L27.34,8.8z M8.1,7.75L7.9,7.56l0,0
			c0.13-0.13,0.26-0.26,0.4-0.38l0.19,0.2C8.35,7.49,8.22,7.62,8.1,7.75z M26.14,7.5c-0.13-0.12-0.27-0.25-0.4-0.37l0.18-0.21
			c0.14,0.12,0.28,0.25,0.41,0.37L26.14,7.5z M9.42,6.59L9.25,6.37C9.4,6.26,9.55,6.15,9.7,6.04l0.16,0.23
			C9.71,6.37,9.57,6.48,9.42,6.59z M24.78,6.38c-0.15-0.11-0.3-0.21-0.45-0.31l0.15-0.23c0.15,0.1,0.31,0.21,0.46,0.31L24.78,6.38z
			 M10.9,5.62l-0.14-0.24c0.16-0.09,0.33-0.18,0.49-0.26l0.12,0.24C11.21,5.44,11.05,5.53,10.9,5.62z M23.28,5.45
			c-0.16-0.08-0.32-0.17-0.49-0.24l0.12-0.25c0.17,0.08,0.33,0.16,0.5,0.25L23.28,5.45z M12.49,4.86l-0.1-0.26
			c0.17-0.07,0.35-0.13,0.52-0.19L13,4.67C12.83,4.73,12.66,4.79,12.49,4.86z M21.66,4.73c-0.17-0.06-0.34-0.12-0.51-0.17l0.08-0.26
			c0.18,0.06,0.35,0.12,0.53,0.18L21.66,4.73z M14.17,4.32l-0.06-0.27c0.18-0.04,0.36-0.08,0.54-0.12l0.05,0.27
			C14.53,4.24,14.35,4.28,14.17,4.32z M19.97,4.25c-0.18-0.04-0.36-0.07-0.53-0.1l0.05-0.27c0.18,0.03,0.37,0.07,0.54,0.1
			L19.97,4.25z M15.91,4.03l-0.03-0.27c0.18-0.02,0.37-0.03,0.55-0.05l0.02,0.27C16.27,3.99,16.09,4.01,15.91,4.03z M18.22,3.99
			c-0.18-0.01-0.36-0.02-0.54-0.03l0.01-0.27c0.18,0.01,0.37,0.02,0.55,0.03L18.22,3.99z"/>
		<path class="st2" d="M17.24,28.33c-3.05,0-5.93-1.19-8.08-3.35c-4.46-4.46-4.46-11.71,0-16.17c2.16-2.16,5.03-3.35,8.08-3.35
			c3.05,0,5.93,1.19,8.08,3.35c2.16,2.16,3.35,5.03,3.35,8.08s-1.19,5.93-3.35,8.08l0,0l0,0C23.17,27.14,20.3,28.33,17.24,28.33z
			 M17.24,5.73c-2.98,0-5.78,1.16-7.89,3.27C5,13.35,5,20.43,9.35,24.78c2.11,2.11,4.91,3.27,7.89,3.27c2.98,0,5.78-1.16,7.89-3.27
			l0,0c2.11-2.11,3.27-4.91,3.27-7.89c0-2.98-1.16-5.78-3.27-7.89C23.03,6.89,20.22,5.73,17.24,5.73z"/>
		<path class="st2" d="M17.19,31.5l-0.07,0c-1.77-0.02-3.5-0.35-5.15-0.98l-0.06-0.02l0.02-0.06l2.35-6.08l0.06,0.02
			c0.9,0.35,1.85,0.53,2.83,0.54l0.07,0L17.19,31.5z M12.08,30.41c1.59,0.61,3.26,0.92,4.97,0.95l0.05-6.31
			c-0.94-0.02-1.87-0.19-2.74-0.52L12.08,30.41z M30.55,22.92l-6.02-2.69l0.03-0.06c0.39-0.88,0.62-1.82,0.68-2.79l0-0.07l6.58,0.39
			l0,0.07c-0.11,1.77-0.52,3.48-1.24,5.09L30.55,22.92z M24.72,20.16l5.76,2.58c0.69-1.56,1.09-3.21,1.2-4.91l-6.3-0.37
			C25.31,18.39,25.09,19.3,24.72,20.16z M9.23,16.75l-6.59-0.17l0-0.07c0.05-1.77,0.41-3.5,1.07-5.13l0.03-0.06l6.1,2.48l-0.03,0.06
			c-0.36,0.9-0.56,1.84-0.59,2.82L9.23,16.75z M2.78,16.45l6.31,0.16c0.03-0.94,0.22-1.86,0.57-2.73L3.81,11.5
			C3.18,13.08,2.83,14.75,2.78,16.45z M24.73,14.03l-0.03-0.06c-0.35-0.9-0.86-1.72-1.51-2.44l-0.05-0.05l4.89-4.42l0.05,0.05
			c1.19,1.32,2.12,2.82,2.76,4.46l0.02,0.06L24.73,14.03z M23.34,11.48c0.63,0.7,1.12,1.5,1.47,2.37l5.88-2.3
			c-0.63-1.58-1.52-3.03-2.66-4.3L23.34,11.48z M11.72,11.08l-4.5-4.81l0.05-0.05c1.3-1.21,2.78-2.17,4.41-2.84l0.06-0.03l0.03,0.06
			l2.48,6.03l-0.06,0.03c-0.89,0.37-1.71,0.89-2.42,1.56L11.72,11.08z M7.42,6.27l4.31,4.61c0.69-0.64,1.48-1.15,2.35-1.51
			l-2.4-5.84C10.1,4.19,8.67,5.11,7.42,6.27z M20.46,9.54l-0.06-0.03c-0.89-0.38-1.83-0.59-2.81-0.63l-0.07,0l0-0.07L17.8,2.3
			l0.07,0c1.77,0.08,3.49,0.46,5.11,1.16l0.06,0.03L20.46,9.54z M17.66,8.75C18.6,8.8,19.52,9,20.38,9.36l2.48-5.81
			c-1.57-0.66-3.23-1.04-4.93-1.12L17.66,8.75z"/>
		<path class="st2" d="M19.76,33.16l-1.15-7.27l0.06-0.01c1.9-0.3,3.63-1.18,5-2.55l0.07-0.07l5.21,5.21l-0.07,0.07
			c-2.48,2.48-5.61,4.07-9.06,4.62L19.76,33.16z M18.75,25.99l1.11,7.03c3.4-0.55,6.48-2.13,8.92-4.56l-5.03-5.03
			C22.38,24.79,20.65,25.68,18.75,25.99z M5.65,28.58l-0.04-0.04c-2.48-2.48-4.08-5.61-4.62-9.06l-0.01-0.06l4.07-0.65l0.01,0.06
			l-0.01-0.06l3.2-0.51l0.01,0.06c0.3,1.9,1.18,3.63,2.55,5l0.04,0.04L5.65,28.58z M1.12,19.53c0.55,3.38,2.12,6.45,4.54,8.88
			l5.03-5.04C9.33,22,8.46,20.29,8.15,18.41L1.12,19.53z M26.23,15.5l-0.01-0.06c-0.3-1.89-1.19-3.62-2.55-4.98l-0.07-0.07
			l5.16-5.16l0.01,0.01l0.04-0.04l0.06,0.05c2.47,2.47,4.07,5.59,4.62,9.03l0.01,0.06l-0.06,0.01L26.23,15.5z M23.78,10.39
			c1.36,1.36,2.24,3.08,2.55,4.97l7.03-1.13c-0.55-3.37-2.12-6.44-4.54-8.87L26.3,7.88L23.78,10.39z M10.75,10.52L5.54,5.31
			L5.6,5.25c2.47-2.47,5.59-4.07,9.03-4.61l0.06-0.01l1.16,7.27L15.8,7.91c-1.9,0.3-3.62,1.18-4.99,2.55L10.75,10.52z M5.72,5.31
			l5.03,5.03c1.36-1.35,3.08-2.23,4.97-2.55L14.6,0.77C11.22,1.32,8.15,2.89,5.72,5.31z"/>
	</g>
	<path class="st2" d="M21.03,13.54c-1.23,0.12-2.4,0.5-3.37,1.27l-0.05,0.04l-0.05-0.04c-0.97-0.77-2.14-1.15-3.37-1.27l-0.7-0.07
		v6.32c0,0,2.65,0.15,4.12,1.32c1.47-1.18,4.12-1.32,4.12-1.32v-6.32L21.03,13.54z"/>
</g>
</svg>
