<?xml version="1.0" encoding="utf-8"?>
<!-- Generator: Adobe Illustrator 24.1.0, SVG Export Plug-In . SVG Version: 6.00 Build 0)  -->
<svg version="1.1" id="Layer_1" xmlns="http://www.w3.org/2000/svg" xmlns:xlink="http://www.w3.org/1999/xlink" x="0px" y="0px"
	 viewBox="0 0 1189.86 718.62" style="enable-background:new 0 0 1189.86 718.62;" xml:space="preserve">
<style type="text/css">
	.st0{fill:#00C3FF;}
	.st1{opacity:0.8;}
	.st2{fill:#FFFFFF;}
	.st3{fill:#00FF00;}
	.st4{fill:#14D4D4;}
	.st5{fill:#D8DADA;}
	.st6{fill:none;stroke:#77ADD9;stroke-miterlimit:10;}
	.st7{fill:none;stroke:#77ADD9;stroke-width:0.5;stroke-miterlimit:10;}
	.st8{fill:none;stroke:#14D4D4;stroke-width:0.5;stroke-miterlimit:10;}
	.st9{opacity:0.5;fill:#191C81;stroke:#00DFFF;stroke-width:2;stroke-miterlimit:10;}
	.st10{fill:#00C3FF;stroke:#00C3FF;stroke-miterlimit:10;}
	.st11{opacity:0.7;fill:#1A2180;}
	.st12{fill:#1A2180;stroke:#1EE2FF;stroke-width:2;stroke-miterlimit:10;}
</style>
<g>
	<path class="st9" d="M1162.65,1H27.21C27.4,0.89,1,24.73,1,24.66v669.29c0,0.23,25.58,23.33,26.2,23.67c0.01,0,0.01,0,0.02,0
		h1135.42c0.01,0,0.02,0,0.02,0c0.62-0.34,26.2-23.44,26.2-23.67V24.66C1188.86,24.73,1162.46,0.89,1162.65,1z"/>
	<path class="st9" d="M1167.2,671.63c0,0.04-26.01,22.69-26.01,22.69c-159.31,5.4-1091.98,0-1091.98,0s-24.69-22.47-24.69-22.69
		V46.05c0,0.06,25.27-22.79,25.09-22.68h1092.5c-0.18-0.11,25.09,22.74,25.09,22.68V671.63z"/>
</g>
</svg>
